<svg xmlns="http://www.w3.org/2000/svg" xmlns:v="https://svgstorm.com"
viewBox = "0 0 736 736"
width="736"
height="736">
<g fill="None" fill-opacity="0.0" stroke="#19ABCC" stroke-opacity="1.00" stroke-width="0.3"><path d="
M 0.00 736.00 
L 736.00 736.00
L 736.00 0.00
L 0.00 0.00
L 0.00 736.00
M 376.00 20.00 
C 413.74 23.65 457.94 29.00 492.02 42.98 C 526.11 56.95 552.90 70.48 580.70 93.30 C 608.49 116.13 628.54 134.60 648.92 164.08 C 669.29 193.57 684.71 220.13 696.98 255.02 C 709.24 289.92 717.01 336.89 716.00 376.00 C 714.99 415.11 706.69 457.85 693.07 492.07 C 679.46 526.30 665.28 552.83 643.08 581.08 C 620.89 609.33 600.75 627.86 572.31 649.31 C 543.86 670.75 515.68 684.75 480.99 696.99 C 446.31 709.23 399.00 716.97 360.00 716.00 C 321.00 715.03 278.11 706.21 243.93 693.07 C 209.74 679.94 182.89 664.98 154.75 643.25 C 126.61 621.51 107.11 601.41 86.70 572.31 C 66.28 543.20 51.50 515.38 39.07 480.93 C 26.65 446.47 18.84 398.74 20.33 360.33 C 21.82 321.92 28.70 277.37 42.92 243.92 C 57.15 210.48 70.89 182.64 92.75 154.75 C 114.62 126.87 135.32 107.22 163.75 86.75 C 192.18 66.29 220.47 49.63 255.07 39.07 C 289.68 28.52 336.97 16.22 376.00 20.00 Z"/>
</g>
<g fill="None" fill-opacity="0.0" stroke="#8BE2EF" stroke-opacity="1.00" stroke-width="0.3"><path d="
M 376.00 20.00 
C 336.97 16.22 289.68 28.52 255.07 39.07 C 220.47 49.63 192.18 66.29 163.75 86.75 C 135.32 107.22 114.62 126.87 92.75 154.75 C 70.89 182.64 57.15 210.48 42.92 243.92 C 28.70 277.37 21.82 321.92 20.33 360.33 C 18.84 398.74 26.65 446.47 39.07 480.93 C 51.50 515.38 66.28 543.20 86.70 572.31 C 107.11 601.41 126.61 621.51 154.75 643.25 C 182.89 664.98 209.74 679.94 243.93 693.07 C 278.11 706.21 321.00 715.03 360.00 716.00 C 399.00 716.97 446.31 709.23 480.99 696.99 C 515.68 684.75 543.86 670.75 572.31 649.31 C 600.75 627.86 620.89 609.33 643.08 581.08 C 665.28 552.83 679.46 526.30 693.07 492.07 C 706.69 457.85 714.99 415.11 716.00 376.00 C 717.01 336.89 709.24 289.92 696.98 255.02 C 684.71 220.13 669.29 193.57 648.92 164.08 C 628.54 134.60 608.49 116.13 580.70 93.30 C 552.90 70.48 526.11 56.95 492.02 42.98 C 457.94 29.00 413.74 23.65 376.00 20.00
M 610.00 127.00 
C 617.01 127.22 621.20 137.83 626.32 142.68 C 631.44 147.54 636.82 154.49 641.92 161.08 C 647.02 167.67 649.33 174.41 654.77 181.23 C 660.21 188.05 662.70 195.39 667.32 202.68 C 671.95 209.96 676.22 215.67 679.25 223.75 C 682.28 231.83 684.87 240.50 687.93 249.07 C 690.98 257.65 692.80 266.98 696.26 275.74 C 699.72 284.51 700.62 293.45 703.00 303.00 C 705.37 312.56 705.95 324.01 707.00 334.00 C 708.05 343.99 709.62 353.31 709.00 364.00 C 708.38 374.69 709.71 386.92 708.00 397.00 C 706.29 407.08 706.13 417.57 704.65 426.70 C 703.17 435.83 700.13 444.88 698.22 454.22 C 696.32 463.56 692.68 472.32 689.30 480.29 C 685.91 488.27 685.30 498.25 680.70 505.69 C 676.09 513.14 673.22 521.83 669.08 529.08 C 664.93 536.32 660.74 543.59 656.23 550.23 C 651.72 556.87 647.05 566.69 641.00 568.00
C 632.57 585.93 617.02 599.17 602.92 613.92 C 588.81 628.67 572.76 641.14 555.77 651.77 C 538.78 662.40 521.60 673.80 500.92 681.92 C 480.25 690.05 459.55 697.19 436.78 701.78 C 414.01 706.37 383.26 709.93 359.00 709.00 C 334.74 708.07 312.15 704.18 289.32 699.68 C 266.50 695.18 249.21 687.16 229.75 679.24 C 210.29 671.33 191.20 661.64 174.92 649.08 C 158.65 636.52 139.86 627.00 128.00 611.00
C 124.46 612.76 121.54 607.05 118.75 604.25 C 115.97 601.45 110.78 598.53 112.00 595.00
C 106.57 593.60 101.16 584.38 96.25 578.75 C 91.34 573.13 86.55 564.33 82.03 558.97 C 77.51 553.61 76.09 546.27 71.23 539.77 C 66.37 533.27 63.42 528.26 59.68 520.32 C 55.94 512.38 52.02 504.86 49.23 496.77 C 46.44 488.68 42.80 482.79 41.02 472.98 C 39.25 463.16 35.61 457.05 33.22 447.78 C 30.84 438.51 28.82 430.90 28.00 421.00 C 27.18 411.10 25.53 400.26 25.00 390.00 C 24.47 379.73 23.82 367.14 23.01 356.99 C 22.20 346.85 24.60 335.58 25.98 325.98 C 27.36 316.37 28.51 306.10 30.99 296.99 C 33.48 287.89 33.02 277.59 37.32 269.32 C 41.63 261.06 41.42 250.36 45.33 242.33 C 49.23 234.29 53.17 227.12 55.98 218.98 C 58.78 210.83 63.86 204.48 68.25 197.25 C 72.64 190.01 76.06 182.21 81.25 175.25 C 86.44 168.29 91.75 163.06 95.75 155.75 C 99.76 148.45 105.05 142.73 111.25 137.25 C 117.44 131.77 122.43 124.67 128.25 119.25 C 134.08 113.84 140.27 108.98 146.25 103.25 C 152.22 97.51 159.71 93.30 165.68 88.68 C 171.66 84.06 178.61 79.04 185.75 74.75 C 192.89 70.45 200.08 65.55 208.07 62.07 C 216.07 58.59 222.91 54.57 231.23 51.23 C 239.55 47.89 246.69 44.34 255.67 41.67 C 264.66 39.01 273.39 35.93 282.68 33.68 C 291.96 31.42 300.58 29.44 310.22 27.22 C 319.87 25.00 330.69 25.10 341.00 24.00 C 351.31 22.90 364.34 22.94 375.00 23.00 C 385.66 23.06 396.91 23.97 407.02 24.98 C 417.14 25.98 426.32 28.78 436.02 29.98 C 445.73 31.17 454.61 34.07 463.68 36.32 C 472.75 38.58 480.79 42.24 489.08 45.92 C 497.36 49.60 504.41 52.98 512.25 56.75 C 520.09 60.53 527.19 64.31 534.74 68.26 C 542.30 72.20 549.43 77.43 556.23 81.77 C 563.03 86.11 568.28 89.90 575.08 94.92 C 581.88 99.94 588.80 103.57 594.25 109.75 C 599.70 115.94 609.33 119.58 610.00 127.00 Z"/>
</g>
<g fill="None" fill-opacity="0.0" stroke="#C3F9FA" stroke-opacity="1.00" stroke-width="0.3"><path d="
M 610.00 127.00 
C 609.33 119.58 599.70 115.94 594.25 109.75 C 588.80 103.57 581.88 99.94 575.08 94.92 C 568.28 89.90 563.03 86.11 556.23 81.77 C 549.43 77.43 542.30 72.20 534.74 68.26 C 527.19 64.31 520.09 60.53 512.25 56.75 C 504.41 52.98 497.36 49.60 489.08 45.92 C 480.79 42.24 472.75 38.58 463.68 36.32 C 454.61 34.07 445.73 31.17 436.02 29.98 C 426.32 28.78 417.14 25.98 407.02 24.98 C 396.91 23.97 385.66 23.06 375.00 23.00 C 364.34 22.94 351.31 22.90 341.00 24.00 C 330.69 25.10 319.87 25.00 310.22 27.22 C 300.58 29.44 291.96 31.42 282.68 33.68 C 273.39 35.93 264.66 39.01 255.67 41.67 C 246.69 44.34 239.55 47.89 231.23 51.23 C 222.91 54.57 216.07 58.59 208.07 62.07 C 200.08 65.55 192.89 70.45 185.75 74.75 C 178.61 79.04 171.66 84.06 165.68 88.68 C 159.71 93.30 152.22 97.51 146.25 103.25 C 140.27 108.98 134.08 113.84 128.25 119.25 C 122.43 124.67 117.44 131.77 111.25 137.25 C 105.05 142.73 99.76 148.45 95.75 155.75 C 91.75 163.06 86.44 168.29 81.25 175.25 C 76.06 182.21 72.64 190.01 68.25 197.25 C 63.86 204.48 58.78 210.83 55.98 218.98 C 53.17 227.12 49.23 234.29 45.33 242.33 C 41.42 250.36 41.63 261.06 37.32 269.32 C 33.02 277.59 33.48 287.89 30.99 296.99 C 28.51 306.10 27.36 316.37 25.98 325.98 C 24.60 335.58 22.20 346.85 23.01 356.99 C 23.82 367.14 24.47 379.73 25.00 390.00 C 25.53 400.26 27.18 411.10 28.00 421.00 C 28.82 430.90 30.84 438.51 33.22 447.78 C 35.61 457.05 39.25 463.16 41.02 472.98 C 42.80 482.79 46.44 488.68 49.23 496.77 C 52.02 504.86 55.94 512.38 59.68 520.32 C 63.42 528.26 66.37 533.27 71.23 539.77 C 76.09 546.27 77.51 553.61 82.03 558.97 C 86.55 564.33 91.34 573.13 96.25 578.75 C 101.16 584.38 106.57 593.60 112.00 595.00
C 110.78 598.53 115.97 601.45 118.75 604.25 C 121.54 607.05 124.46 612.76 128.00 611.00
C 139.86 627.00 158.65 636.52 174.92 649.08 C 191.20 661.64 210.29 671.33 229.75 679.24 C 249.21 687.16 266.50 695.18 289.32 699.68 C 312.15 704.18 334.74 708.07 359.00 709.00 C 383.26 709.93 414.01 706.37 436.78 701.78 C 459.55 697.19 480.25 690.05 500.92 681.92 C 521.60 673.80 538.78 662.40 555.77 651.77 C 572.76 641.14 588.81 628.67 602.92 613.92 C 617.02 599.17 632.57 585.93 641.00 568.00
C 647.05 566.69 651.72 556.87 656.23 550.23 C 660.74 543.59 664.93 536.32 669.08 529.08 C 673.22 521.83 676.09 513.14 680.70 505.69 C 685.30 498.25 685.91 488.27 689.30 480.29 C 692.68 472.32 696.32 463.56 698.22 454.22 C 700.13 444.88 703.17 435.83 704.65 426.70 C 706.13 417.57 706.29 407.08 708.00 397.00 C 709.71 386.92 708.38 374.69 709.00 364.00 C 709.62 353.31 708.05 343.99 707.00 334.00 C 705.95 324.01 705.37 312.56 703.00 303.00 C 700.62 293.45 699.72 284.51 696.26 275.74 C 692.80 266.98 690.98 257.65 687.93 249.07 C 684.87 240.50 682.28 231.83 679.25 223.75 C 676.22 215.67 671.95 209.96 667.32 202.68 C 662.70 195.39 660.21 188.05 654.77 181.23 C 649.33 174.41 647.02 167.67 641.92 161.08 C 636.82 154.49 631.44 147.54 626.32 142.68 C 621.20 137.83 617.01 127.22 610.00 127.00
M 392.00 39.00 
C 476.14 47.14 552.67 81.76 611.75 146.25 C 670.83 210.73 702.32 302.32 696.00 390.00 C 689.68 477.68 652.08 550.50 588.25 610.25 C 524.41 670.00 432.53 700.03 345.99 694.01 C 259.45 687.99 185.39 650.75 125.75 587.25 C 66.11 523.74 34.85 430.75 41.00 344.00 C 47.15 257.25 84.28 182.42 148.75 123.75 C 213.21 65.07 302.70 30.36 392.00 39.00 Z"/>
</g>
<g fill="None" fill-opacity="0.0" stroke="#1AABCC" stroke-opacity="1.00" stroke-width="0.3"><path d="
M 392.00 39.00 
C 302.70 30.36 213.21 65.07 148.75 123.75 C 84.28 182.42 47.15 257.25 41.00 344.00 C 34.85 430.75 66.11 523.74 125.75 587.25 C 185.39 650.75 259.45 687.99 345.99 694.01 C 432.53 700.03 524.41 670.00 588.25 610.25 C 652.08 550.50 689.68 477.68 696.00 390.00 C 702.32 302.32 670.83 210.73 611.75 146.25 C 552.67 81.76 476.14 47.14 392.00 39.00
M 216.00 338.00 
C 215.97 337.50 215.99 336.50 216.00 336.00
C 216.16 329.82 218.97 324.35 220.00 319.00
C 220.00 317.68 219.91 316.32 220.00 315.00
C 220.75 304.40 224.86 292.98 227.00 283.00
C 231.49 262.06 234.48 240.95 239.00 220.00
C 255.00 220.00 271.00 220.00 287.00 220.00
C 289.15 228.19 291.60 236.32 292.00 245.00
C 302.48 286.03 311.70 328.93 322.00 370.00
C 330.11 321.69 336.44 272.06 343.00 223.00
C 346.31 219.16 358.37 222.54 364.00 222.00 C 369.63 221.46 378.31 223.92 385.00 223.00 C 391.69 222.08 399.94 223.56 407.00 223.00 C 414.06 222.44 421.72 224.95 429.00 224.00
C 440.35 278.83 452.86 333.40 464.00 388.00
C 475.91 333.35 485.14 277.21 496.00 222.00
C 509.00 220.47 519.77 224.04 533.00 222.00 C 546.23 219.96 546.54 233.81 548.78 244.22 C 551.02 254.64 553.30 264.98 555.78 275.22 C 558.25 285.47 559.67 295.47 562.33 305.67 C 564.99 315.87 566.08 327.32 568.33 337.67 C 570.58 348.02 573.58 357.95 575.78 368.22 C 577.97 378.50 581.27 387.62 583.00 398.00 C 584.72 408.39 587.22 418.84 589.93 429.07 C 592.64 439.31 593.23 450.48 596.33 460.67 C 599.43 470.86 600.94 481.49 603.00 492.00
C 592.34 491.88 580.54 492.15 570.00 492.00 C 559.46 491.85 544.30 495.53 544.00 484.00 C 543.70 472.47 541.10 465.09 539.00 455.00 C 536.90 444.90 536.07 435.94 535.00 426.00 C 533.93 416.06 529.84 407.81 529.02 397.98 C 528.21 388.14 527.38 377.20 525.01 367.99 C 522.63 358.78 521.25 348.48 518.00 341.00
C 507.76 392.21 495.46 442.86 485.00 494.00
C 470.67 494.00 456.33 494.00 442.00 494.00
C 439.40 480.61 436.47 467.13 433.02 453.98 C 429.58 440.82 426.40 427.10 423.02 413.98 C 419.65 400.86 416.74 387.80 413.08 374.92 C 409.41 362.05 407.70 346.72 402.00 336.00
C 393.13 386.24 388.47 438.27 379.00 488.00
C 380.45 502.95 364.87 495.06 355.00 497.00 C 345.13 498.94 333.09 497.69 323.00 498.00 C 312.91 498.31 298.83 500.84 298.22 489.78 C 297.62 478.71 294.30 472.01 293.00 462.00 C 291.70 451.99 289.05 444.24 287.22 434.78 C 285.40 425.32 283.75 416.26 282.01 406.99 C 280.26 397.73 277.76 389.14 276.02 379.98 C 274.29 370.81 272.75 361.32 270.67 352.33 C 268.59 343.33 267.62 334.07 264.00 326.00
C 262.91 335.88 260.73 345.31 259.07 355.07 C 257.41 364.84 254.90 374.48 253.22 384.22 C 251.54 393.96 250.45 404.63 248.07 414.07 C 245.69 423.52 244.98 433.64 243.00 443.00 C 241.02 452.37 239.47 463.31 237.22 472.22 C 234.97 481.13 237.53 496.28 226.00 496.00 C 214.47 495.72 203.64 497.73 192.00 497.00
C 188.07 497.38 183.72 499.65 181.00 496.00
C 178.99 493.30 179.68 488.21 179.00 485.00
C 175.46 468.22 169.18 451.34 168.00 434.00
C 157.45 392.71 149.69 349.86 140.00 308.00
C 139.89 307.53 140.00 306.50 140.00 306.00
C 130.40 278.47 128.05 247.61 121.00 219.00
C 131.22 219.83 145.15 217.90 155.00 219.00 C 164.85 220.10 182.55 214.34 184.00 225.00 C 185.45 235.66 187.50 244.72 188.93 255.07 C 190.35 265.42 191.75 274.72 193.00 285.00 C 194.25 295.29 196.20 305.03 197.78 315.22 C 199.35 325.41 200.44 335.82 201.98 346.02 C 203.51 356.23 204.87 366.66 206.00 377.00
C 212.00 365.63 210.91 349.91 216.00 338.00 Z"/>
</g>
<g fill="None" fill-opacity="0.0" stroke="#C8F3F8" stroke-opacity="1.00" stroke-width="0.3"><path d="
M 140.00 306.00 
C 140.00 277.56 125.40 250.26 123.00 222.00
C 142.07 220.79 163.35 219.32 182.00 223.00
C 186.21 249.55 188.53 275.09 193.98 301.02 C 199.43 326.96 199.57 354.82 207.00 380.00
C 215.05 368.05 212.41 352.37 216.00 338.00
C 210.91 349.91 212.00 365.63 206.00 377.00
C 204.87 366.66 203.51 356.23 201.98 346.02 C 200.44 335.82 199.35 325.41 197.78 315.22 C 196.20 305.03 194.25 295.29 193.00 285.00 C 191.75 274.72 190.35 265.42 188.93 255.07 C 187.50 244.72 185.45 235.66 184.00 225.00 C 182.55 214.34 164.85 220.10 155.00 219.00 C 145.15 217.90 131.22 219.83 121.00 219.00
C 128.05 247.61 130.40 278.47 140.00 306.00 Z"/>
</g>
<g fill="None" fill-opacity="0.0" stroke="#FDFEFE" stroke-opacity="1.00" stroke-width="0.3"><path d="
M 227.00 283.00 
C 227.00 294.79 223.19 304.24 220.00 315.00
C 219.91 316.32 220.00 317.68 220.00 319.00
C 220.00 326.11 219.79 330.57 216.00 336.00
C 215.99 336.50 215.97 337.50 216.00 338.00
C 212.41 352.37 215.05 368.05 207.00 380.00
C 199.57 354.82 199.43 326.96 193.98 301.02 C 188.53 275.09 186.21 249.55 182.00 223.00
C 163.35 219.32 142.07 220.79 123.00 222.00
C 125.40 250.26 140.00 277.56 140.00 306.00
C 140.00 306.50 139.89 307.53 140.00 308.00
C 141.29 308.70 141.67 308.81 143.00 308.00
C 148.38 350.95 162.73 391.25 168.00 434.00
C 169.18 451.34 175.46 468.22 179.00 485.00
C 180.29 488.25 182.89 491.77 182.00 496.00
C 195.85 495.48 210.42 496.50 224.00 495.00 C 237.58 493.50 233.45 476.56 236.00 466.00 C 238.55 455.44 240.21 441.25 243.00 430.00 C 245.79 418.74 246.60 404.60 249.00 393.00 C 251.40 381.40 253.29 368.30 255.98 356.98 C 258.66 345.65 258.58 331.75 266.00 324.00
C 270.46 332.96 268.19 343.81 271.98 353.02 C 275.76 362.24 276.33 373.21 278.00 383.00 C 279.67 392.79 282.71 402.15 284.00 412.00 C 285.28 421.85 288.57 431.83 290.92 441.08 C 293.28 450.33 294.02 461.45 296.93 470.07 C 299.83 478.70 296.25 494.65 307.00 496.00 C 317.76 497.34 330.76 495.30 342.00 496.00 C 353.24 496.71 365.94 495.77 377.00 495.00
C 376.50 480.41 372.01 468.75 370.94 454.92 C 369.86 441.09 369.67 424.14 366.67 410.33 C 363.67 396.52 363.00 382.02 361.22 367.78 C 359.44 353.53 356.76 339.34 355.00 325.00 C 353.24 310.66 352.22 296.42 350.02 281.98 C 347.83 267.53 345.90 253.28 344.00 239.00
C 341.54 249.68 338.01 261.83 342.00 273.00
C 332.91 272.61 338.80 288.11 335.67 295.67 C 332.54 303.23 333.60 314.66 332.00 323.00 C 330.40 331.34 329.49 340.89 327.02 349.02 C 324.56 357.16 327.79 369.50 321.00 374.00
C 318.99 367.54 316.69 361.68 315.02 354.98 C 313.36 348.27 313.58 340.21 311.23 333.77 C 308.88 327.33 307.55 320.53 306.02 313.98 C 304.50 307.42 303.29 299.43 301.03 293.97 C 298.78 288.50 300.26 279.50 298.00 274.00 C 295.74 268.50 297.04 256.70 292.00 259.00
C 293.72 254.31 292.21 249.86 292.00 245.00
C 291.60 236.32 289.15 228.19 287.00 220.00
C 271.00 220.00 255.00 220.00 239.00 220.00
C 234.48 240.95 231.49 262.06 227.00 283.00 Z"/>
</g>
<g fill="None" fill-opacity="0.0" stroke="#04E1F9" stroke-opacity="1.00" stroke-width="0.3"><path d="
M 343.00 223.00 
C 349.69 250.84 350.96 281.74 355.00 311.00 C 359.04 340.26 363.06 370.22 366.33 399.67 C 369.60 429.12 376.19 458.97 379.00 488.00
C 388.47 438.27 393.13 386.24 402.00 336.00
C 407.70 346.72 409.41 362.05 413.08 374.92 C 416.74 387.80 419.65 400.86 423.02 413.98 C 426.40 427.10 429.58 440.82 433.02 453.98 C 436.47 467.13 439.40 480.61 442.00 494.00
C 456.33 494.00 470.67 494.00 485.00 494.00
C 495.46 442.86 507.76 392.21 518.00 341.00
C 521.25 348.48 522.63 358.78 525.01 367.99 C 527.38 377.20 528.21 388.14 529.02 397.98 C 529.84 407.81 533.93 416.06 535.00 426.00 C 536.07 435.94 536.90 444.90 539.00 455.00 C 541.10 465.09 543.70 472.47 544.00 484.00 C 544.30 495.53 559.46 491.85 570.00 492.00 C 580.54 492.15 592.34 491.88 603.00 492.00
C 600.94 481.49 599.43 470.86 596.33 460.67 C 593.23 450.48 592.64 439.31 589.93 429.07 C 587.22 418.84 584.72 408.39 583.00 398.00 C 581.27 387.62 577.97 378.50 575.78 368.22 C 573.58 357.95 570.58 348.02 568.33 337.67 C 566.08 327.32 564.99 315.87 562.33 305.67 C 559.67 295.47 558.25 285.47 555.78 275.22 C 553.30 264.98 551.02 254.64 548.78 244.22 C 546.54 233.81 546.23 219.96 533.00 222.00 C 519.77 224.04 509.00 220.47 496.00 222.00
C 485.14 277.21 475.91 333.35 464.00 388.00
C 452.86 333.40 440.35 278.83 429.00 224.00
C 421.72 224.95 414.06 222.44 407.00 223.00 C 399.94 223.56 391.69 222.08 385.00 223.00 C 378.31 223.92 369.63 221.46 364.00 222.00 C 358.37 222.54 346.31 219.16 343.00 223.00 Z"/>
</g>
<g fill="None" fill-opacity="0.0" stroke="#CDF7FA" stroke-opacity="1.00" stroke-width="0.3"><path d="
M 292.00 245.00 
C 292.21 249.86 293.72 254.31 292.00 259.00
C 297.04 256.70 295.74 268.50 298.00 274.00 C 300.26 279.50 298.78 288.50 301.03 293.97 C 303.29 299.43 304.50 307.42 306.02 313.98 C 307.55 320.53 308.88 327.33 311.23 333.77 C 313.58 340.21 313.36 348.27 315.02 354.98 C 316.69 361.68 318.99 367.54 321.00 374.00
C 327.79 369.50 324.56 357.16 327.02 349.02 C 329.49 340.89 330.40 331.34 332.00 323.00 C 333.60 314.66 332.54 303.23 335.67 295.67 C 338.80 288.11 332.91 272.61 342.00 273.00
C 338.01 261.83 341.54 249.68 344.00 239.00
C 345.90 253.28 347.83 267.53 350.02 281.98 C 352.22 296.42 353.24 310.66 355.00 325.00 C 356.76 339.34 359.44 353.53 361.22 367.78 C 363.00 382.02 363.67 396.52 366.67 410.33 C 369.67 424.14 369.86 441.09 370.94 454.92 C 372.01 468.75 376.50 480.41 377.00 495.00
C 365.94 495.77 353.24 496.71 342.00 496.00 C 330.76 495.30 317.76 497.34 307.00 496.00 C 296.25 494.65 299.83 478.70 296.93 470.07 C 294.02 461.45 293.28 450.33 290.92 441.08 C 288.57 431.83 285.28 421.85 284.00 412.00 C 282.71 402.15 279.67 392.79 278.00 383.00 C 276.33 373.21 275.76 362.24 271.98 353.02 C 268.19 343.81 270.46 332.96 266.00 324.00
C 258.58 331.75 258.66 345.65 255.98 356.98 C 253.29 368.30 251.40 381.40 249.00 393.00 C 246.60 404.60 245.79 418.74 243.00 430.00 C 240.21 441.25 238.55 455.44 236.00 466.00 C 233.45 476.56 237.58 493.50 224.00 495.00 C 210.42 496.50 195.85 495.48 182.00 496.00
C 182.89 491.77 180.29 488.25 179.00 485.00
C 179.68 488.21 178.99 493.30 181.00 496.00
C 183.25 498.12 189.11 497.00 192.00 497.00
C 203.64 497.73 214.47 495.72 226.00 496.00 C 237.53 496.28 234.97 481.13 237.22 472.22 C 239.47 463.31 241.02 452.37 243.00 443.00 C 244.98 433.64 245.69 423.52 248.07 414.07 C 250.45 404.63 251.54 393.96 253.22 384.22 C 254.90 374.48 257.41 364.84 259.07 355.07 C 260.73 345.31 262.91 335.88 264.00 326.00
C 267.62 334.07 268.59 343.33 270.67 352.33 C 272.75 361.32 274.29 370.81 276.02 379.98 C 277.76 389.14 280.26 397.73 282.01 406.99 C 283.75 416.26 285.40 425.32 287.22 434.78 C 289.05 444.24 291.70 451.99 293.00 462.00 C 294.30 472.01 297.62 478.71 298.22 489.78 C 298.83 500.84 312.91 498.31 323.00 498.00 C 333.09 497.69 345.13 498.94 355.00 497.00 C 364.87 495.06 380.45 502.95 379.00 488.00
C 376.19 458.97 369.60 429.12 366.33 399.67 C 363.06 370.22 359.04 340.26 355.00 311.00 C 350.96 281.74 349.69 250.84 343.00 223.00
C 336.44 272.06 330.11 321.69 322.00 370.00
C 311.70 328.93 302.48 286.03 292.00 245.00 Z"/>
</g>
<g fill="None" fill-opacity="0.0" stroke="#D6F7FC" stroke-opacity="1.00" stroke-width="0.3"><path d="
M 220.00 315.00 
C 223.19 304.24 227.00 294.79 227.00 283.00
C 224.86 292.98 220.75 304.40 220.00 315.00 Z"/>
</g>
<g fill="None" fill-opacity="0.0" stroke="#CDF4F9" stroke-opacity="1.00" stroke-width="0.3"><path d="
M 168.00 434.00 
C 162.73 391.25 148.38 350.95 143.00 308.00
C 141.67 308.81 141.29 308.70 140.00 308.00
C 149.69 349.86 157.45 392.71 168.00 434.00 Z"/>
</g>
<g fill="None" fill-opacity="0.0" stroke="#D0F7FA" stroke-opacity="1.00" stroke-width="0.3"><path d="
M 216.00 336.00 
C 219.79 330.57 220.00 326.11 220.00 319.00
C 218.97 324.35 216.16 329.82 216.00 336.00 Z"/>
</g>
<g fill="None" fill-opacity="0.0" stroke="#82CBDD" stroke-opacity="1.00" stroke-width="0.3"><path d="
M 192.00 497.00 
C 189.11 497.00 183.25 498.12 181.00 496.00
C 183.72 499.65 188.07 497.38 192.00 497.00 Z"/>
</g>
<g fill="#19ABCC" fill-opacity="1.00" stroke="None">
<path d="
M 0.00 736.00 
L 736.00 736.00
L 736.00 0.00
L 0.00 0.00
L 0.00 736.00
M 376.00 20.00 
C 413.74 23.65 457.94 29.00 492.02 42.98 C 526.11 56.95 552.90 70.48 580.70 93.30 C 608.49 116.13 628.54 134.60 648.92 164.08 C 669.29 193.57 684.71 220.13 696.98 255.02 C 709.24 289.92 717.01 336.89 716.00 376.00 C 714.99 415.11 706.69 457.85 693.07 492.07 C 679.46 526.30 665.28 552.83 643.08 581.08 C 620.89 609.33 600.75 627.86 572.31 649.31 C 543.86 670.75 515.68 684.75 480.99 696.99 C 446.31 709.23 399.00 716.97 360.00 716.00 C 321.00 715.03 278.11 706.21 243.93 693.07 C 209.74 679.94 182.89 664.98 154.75 643.25 C 126.61 621.51 107.11 601.41 86.70 572.31 C 66.28 543.20 51.50 515.38 39.07 480.93 C 26.65 446.47 18.84 398.74 20.33 360.33 C 21.82 321.92 28.70 277.37 42.92 243.92 C 57.15 210.48 70.89 182.64 92.75 154.75 C 114.62 126.87 135.32 107.22 163.75 86.75 C 192.18 66.29 220.47 49.63 255.07 39.07 C 289.68 28.52 336.97 16.22 376.00 20.00 Z"/>
</g>
<g fill="#8BE2EF" fill-opacity="1.00" stroke="None">
<path d="
M 376.00 20.00 
C 336.97 16.22 289.68 28.52 255.07 39.07 C 220.47 49.63 192.18 66.29 163.75 86.75 C 135.32 107.22 114.62 126.87 92.75 154.75 C 70.89 182.64 57.15 210.48 42.92 243.92 C 28.70 277.37 21.82 321.92 20.33 360.33 C 18.84 398.74 26.65 446.47 39.07 480.93 C 51.50 515.38 66.28 543.20 86.70 572.31 C 107.11 601.41 126.61 621.51 154.75 643.25 C 182.89 664.98 209.74 679.94 243.93 693.07 C 278.11 706.21 321.00 715.03 360.00 716.00 C 399.00 716.97 446.31 709.23 480.99 696.99 C 515.68 684.75 543.86 670.75 572.31 649.31 C 600.75 627.86 620.89 609.33 643.08 581.08 C 665.28 552.83 679.46 526.30 693.07 492.07 C 706.69 457.85 714.99 415.11 716.00 376.00 C 717.01 336.89 709.24 289.92 696.98 255.02 C 684.71 220.13 669.29 193.57 648.92 164.08 C 628.54 134.60 608.49 116.13 580.70 93.30 C 552.90 70.48 526.11 56.95 492.02 42.98 C 457.94 29.00 413.74 23.65 376.00 20.00
M 610.00 127.00 
C 617.01 127.22 621.20 137.83 626.32 142.68 C 631.44 147.54 636.82 154.49 641.92 161.08 C 647.02 167.67 649.33 174.41 654.77 181.23 C 660.21 188.05 662.70 195.39 667.32 202.68 C 671.95 209.96 676.22 215.67 679.25 223.75 C 682.28 231.83 684.87 240.50 687.93 249.07 C 690.98 257.65 692.80 266.98 696.26 275.74 C 699.72 284.51 700.62 293.45 703.00 303.00 C 705.37 312.56 705.95 324.01 707.00 334.00 C 708.05 343.99 709.62 353.31 709.00 364.00 C 708.38 374.69 709.71 386.92 708.00 397.00 C 706.29 407.08 706.13 417.57 704.65 426.70 C 703.17 435.83 700.13 444.88 698.22 454.22 C 696.32 463.56 692.68 472.32 689.30 480.29 C 685.91 488.27 685.30 498.25 680.70 505.69 C 676.09 513.14 673.22 521.83 669.08 529.08 C 664.93 536.32 660.74 543.59 656.23 550.23 C 651.72 556.87 647.05 566.69 641.00 568.00
C 632.57 585.93 617.02 599.17 602.92 613.92 C 588.81 628.67 572.76 641.14 555.77 651.77 C 538.78 662.40 521.60 673.80 500.92 681.92 C 480.25 690.05 459.55 697.19 436.78 701.78 C 414.01 706.37 383.26 709.93 359.00 709.00 C 334.74 708.07 312.15 704.18 289.32 699.68 C 266.50 695.18 249.21 687.16 229.75 679.24 C 210.29 671.33 191.20 661.64 174.92 649.08 C 158.65 636.52 139.86 627.00 128.00 611.00
C 124.46 612.76 121.54 607.05 118.75 604.25 C 115.97 601.45 110.78 598.53 112.00 595.00
C 106.57 593.60 101.16 584.38 96.25 578.75 C 91.34 573.13 86.55 564.33 82.03 558.97 C 77.51 553.61 76.09 546.27 71.23 539.77 C 66.37 533.27 63.42 528.26 59.68 520.32 C 55.94 512.38 52.02 504.86 49.23 496.77 C 46.44 488.68 42.80 482.79 41.02 472.98 C 39.25 463.16 35.61 457.05 33.22 447.78 C 30.84 438.51 28.82 430.90 28.00 421.00 C 27.18 411.10 25.53 400.26 25.00 390.00 C 24.47 379.73 23.82 367.14 23.01 356.99 C 22.20 346.85 24.60 335.58 25.98 325.98 C 27.36 316.37 28.51 306.10 30.99 296.99 C 33.48 287.89 33.02 277.59 37.32 269.32 C 41.63 261.06 41.42 250.36 45.33 242.33 C 49.23 234.29 53.17 227.12 55.98 218.98 C 58.78 210.83 63.86 204.48 68.25 197.25 C 72.64 190.01 76.06 182.21 81.25 175.25 C 86.44 168.29 91.75 163.06 95.75 155.75 C 99.76 148.45 105.05 142.73 111.25 137.25 C 117.44 131.77 122.43 124.67 128.25 119.25 C 134.08 113.84 140.27 108.98 146.25 103.25 C 152.22 97.51 159.71 93.30 165.68 88.68 C 171.66 84.06 178.61 79.04 185.75 74.75 C 192.89 70.45 200.08 65.55 208.07 62.07 C 216.07 58.59 222.91 54.57 231.23 51.23 C 239.55 47.89 246.69 44.34 255.67 41.67 C 264.66 39.01 273.39 35.93 282.68 33.68 C 291.96 31.42 300.58 29.44 310.22 27.22 C 319.87 25.00 330.69 25.10 341.00 24.00 C 351.31 22.90 364.34 22.94 375.00 23.00 C 385.66 23.06 396.91 23.97 407.02 24.98 C 417.14 25.98 426.32 28.78 436.02 29.98 C 445.73 31.17 454.61 34.07 463.68 36.32 C 472.75 38.58 480.79 42.24 489.08 45.92 C 497.36 49.60 504.41 52.98 512.25 56.75 C 520.09 60.53 527.19 64.31 534.74 68.26 C 542.30 72.20 549.43 77.43 556.23 81.77 C 563.03 86.11 568.28 89.90 575.08 94.92 C 581.88 99.94 588.80 103.57 594.25 109.75 C 599.70 115.94 609.33 119.58 610.00 127.00 Z"/>
</g>
<g fill="#C3F9FA" fill-opacity="1.00" stroke="None">
<path d="
M 610.00 127.00 
C 609.33 119.58 599.70 115.94 594.25 109.75 C 588.80 103.57 581.88 99.94 575.08 94.92 C 568.28 89.90 563.03 86.11 556.23 81.77 C 549.43 77.43 542.30 72.20 534.74 68.26 C 527.19 64.31 520.09 60.53 512.25 56.75 C 504.41 52.98 497.36 49.60 489.08 45.92 C 480.79 42.24 472.75 38.58 463.68 36.32 C 454.61 34.07 445.73 31.17 436.02 29.98 C 426.32 28.78 417.14 25.98 407.02 24.98 C 396.91 23.97 385.66 23.06 375.00 23.00 C 364.34 22.94 351.31 22.90 341.00 24.00 C 330.69 25.10 319.87 25.00 310.22 27.22 C 300.58 29.44 291.96 31.42 282.68 33.68 C 273.39 35.93 264.66 39.01 255.67 41.67 C 246.69 44.34 239.55 47.89 231.23 51.23 C 222.91 54.57 216.07 58.59 208.07 62.07 C 200.08 65.55 192.89 70.45 185.75 74.75 C 178.61 79.04 171.66 84.06 165.68 88.68 C 159.71 93.30 152.22 97.51 146.25 103.25 C 140.27 108.98 134.08 113.84 128.25 119.25 C 122.43 124.67 117.44 131.77 111.25 137.25 C 105.05 142.73 99.76 148.45 95.75 155.75 C 91.75 163.06 86.44 168.29 81.25 175.25 C 76.06 182.21 72.64 190.01 68.25 197.25 C 63.86 204.48 58.78 210.83 55.98 218.98 C 53.17 227.12 49.23 234.29 45.33 242.33 C 41.42 250.36 41.63 261.06 37.32 269.32 C 33.02 277.59 33.48 287.89 30.99 296.99 C 28.51 306.10 27.36 316.37 25.98 325.98 C 24.60 335.58 22.20 346.85 23.01 356.99 C 23.82 367.14 24.47 379.73 25.00 390.00 C 25.53 400.26 27.18 411.10 28.00 421.00 C 28.82 430.90 30.84 438.51 33.22 447.78 C 35.61 457.05 39.25 463.16 41.02 472.98 C 42.80 482.79 46.44 488.68 49.23 496.77 C 52.02 504.86 55.94 512.38 59.68 520.32 C 63.42 528.26 66.37 533.27 71.23 539.77 C 76.09 546.27 77.51 553.61 82.03 558.97 C 86.55 564.33 91.34 573.13 96.25 578.75 C 101.16 584.38 106.57 593.60 112.00 595.00
C 110.78 598.53 115.97 601.45 118.75 604.25 C 121.54 607.05 124.46 612.76 128.00 611.00
C 139.86 627.00 158.65 636.52 174.92 649.08 C 191.20 661.64 210.29 671.33 229.75 679.24 C 249.21 687.16 266.50 695.18 289.32 699.68 C 312.15 704.18 334.74 708.07 359.00 709.00 C 383.26 709.93 414.01 706.37 436.78 701.78 C 459.55 697.19 480.25 690.05 500.92 681.92 C 521.60 673.80 538.78 662.40 555.77 651.77 C 572.76 641.14 588.81 628.67 602.92 613.92 C 617.02 599.17 632.57 585.93 641.00 568.00
C 647.05 566.69 651.72 556.87 656.23 550.23 C 660.74 543.59 664.93 536.32 669.08 529.08 C 673.22 521.83 676.09 513.14 680.70 505.69 C 685.30 498.25 685.91 488.27 689.30 480.29 C 692.68 472.32 696.32 463.56 698.22 454.22 C 700.13 444.88 703.17 435.83 704.65 426.70 C 706.13 417.57 706.29 407.08 708.00 397.00 C 709.71 386.92 708.38 374.69 709.00 364.00 C 709.62 353.31 708.05 343.99 707.00 334.00 C 705.95 324.01 705.37 312.56 703.00 303.00 C 700.62 293.45 699.72 284.51 696.26 275.74 C 692.80 266.98 690.98 257.65 687.93 249.07 C 684.87 240.50 682.28 231.83 679.25 223.75 C 676.22 215.67 671.95 209.96 667.32 202.68 C 662.70 195.39 660.21 188.05 654.77 181.23 C 649.33 174.41 647.02 167.67 641.92 161.08 C 636.82 154.49 631.44 147.54 626.32 142.68 C 621.20 137.83 617.01 127.22 610.00 127.00
M 392.00 39.00 
C 476.14 47.14 552.67 81.76 611.75 146.25 C 670.83 210.73 702.32 302.32 696.00 390.00 C 689.68 477.68 652.08 550.50 588.25 610.25 C 524.41 670.00 432.53 700.03 345.99 694.01 C 259.45 687.99 185.39 650.75 125.75 587.25 C 66.11 523.74 34.85 430.75 41.00 344.00 C 47.15 257.25 84.28 182.42 148.75 123.75 C 213.21 65.07 302.70 30.36 392.00 39.00 Z"/>
</g>
<g fill="#1AABCC" fill-opacity="1.00" stroke="None">
<path d="
M 392.00 39.00 
C 302.70 30.36 213.21 65.07 148.75 123.75 C 84.28 182.42 47.15 257.25 41.00 344.00 C 34.85 430.75 66.11 523.74 125.75 587.25 C 185.39 650.75 259.45 687.99 345.99 694.01 C 432.53 700.03 524.41 670.00 588.25 610.25 C 652.08 550.50 689.68 477.68 696.00 390.00 C 702.32 302.32 670.83 210.73 611.75 146.25 C 552.67 81.76 476.14 47.14 392.00 39.00
M 216.00 338.00 
C 215.97 337.50 215.99 336.50 216.00 336.00
C 216.16 329.82 218.97 324.35 220.00 319.00
C 220.00 317.68 219.91 316.32 220.00 315.00
C 220.75 304.40 224.86 292.98 227.00 283.00
C 231.49 262.06 234.48 240.95 239.00 220.00
C 255.00 220.00 271.00 220.00 287.00 220.00
C 289.15 228.19 291.60 236.32 292.00 245.00
C 302.48 286.03 311.70 328.93 322.00 370.00
C 330.11 321.69 336.44 272.06 343.00 223.00
C 346.31 219.16 358.37 222.54 364.00 222.00 C 369.63 221.46 378.31 223.92 385.00 223.00 C 391.69 222.08 399.94 223.56 407.00 223.00 C 414.06 222.44 421.72 224.95 429.00 224.00
C 440.35 278.83 452.86 333.40 464.00 388.00
C 475.91 333.35 485.14 277.21 496.00 222.00
C 509.00 220.47 519.77 224.04 533.00 222.00 C 546.23 219.96 546.54 233.81 548.78 244.22 C 551.02 254.64 553.30 264.98 555.78 275.22 C 558.25 285.47 559.67 295.47 562.33 305.67 C 564.99 315.87 566.08 327.32 568.33 337.67 C 570.58 348.02 573.58 357.95 575.78 368.22 C 577.97 378.50 581.27 387.62 583.00 398.00 C 584.72 408.39 587.22 418.84 589.93 429.07 C 592.64 439.31 593.23 450.48 596.33 460.67 C 599.43 470.86 600.94 481.49 603.00 492.00
C 592.34 491.88 580.54 492.15 570.00 492.00 C 559.46 491.85 544.30 495.53 544.00 484.00 C 543.70 472.47 541.10 465.09 539.00 455.00 C 536.90 444.90 536.07 435.94 535.00 426.00 C 533.93 416.06 529.84 407.81 529.02 397.98 C 528.21 388.14 527.38 377.20 525.01 367.99 C 522.63 358.78 521.25 348.48 518.00 341.00
C 507.76 392.21 495.46 442.86 485.00 494.00
C 470.67 494.00 456.33 494.00 442.00 494.00
C 439.40 480.61 436.47 467.13 433.02 453.98 C 429.58 440.82 426.40 427.10 423.02 413.98 C 419.65 400.86 416.74 387.80 413.08 374.92 C 409.41 362.05 407.70 346.72 402.00 336.00
C 393.13 386.24 388.47 438.27 379.00 488.00
C 380.45 502.95 364.87 495.06 355.00 497.00 C 345.13 498.94 333.09 497.69 323.00 498.00 C 312.91 498.31 298.83 500.84 298.22 489.78 C 297.62 478.71 294.30 472.01 293.00 462.00 C 291.70 451.99 289.05 444.24 287.22 434.78 C 285.40 425.32 283.75 416.26 282.01 406.99 C 280.26 397.73 277.76 389.14 276.02 379.98 C 274.29 370.81 272.75 361.32 270.67 352.33 C 268.59 343.33 267.62 334.07 264.00 326.00
C 262.91 335.88 260.73 345.31 259.07 355.07 C 257.41 364.84 254.90 374.48 253.22 384.22 C 251.54 393.96 250.45 404.63 248.07 414.07 C 245.69 423.52 244.98 433.64 243.00 443.00 C 241.02 452.37 239.47 463.31 237.22 472.22 C 234.97 481.13 237.53 496.28 226.00 496.00 C 214.47 495.72 203.64 497.73 192.00 497.00
C 188.07 497.38 183.72 499.65 181.00 496.00
C 178.99 493.30 179.68 488.21 179.00 485.00
C 175.46 468.22 169.18 451.34 168.00 434.00
C 157.45 392.71 149.69 349.86 140.00 308.00
C 139.89 307.53 140.00 306.50 140.00 306.00
C 130.40 278.47 128.05 247.61 121.00 219.00
C 131.22 219.83 145.15 217.90 155.00 219.00 C 164.85 220.10 182.55 214.34 184.00 225.00 C 185.45 235.66 187.50 244.72 188.93 255.07 C 190.35 265.42 191.75 274.72 193.00 285.00 C 194.25 295.29 196.20 305.03 197.78 315.22 C 199.35 325.41 200.44 335.82 201.98 346.02 C 203.51 356.23 204.87 366.66 206.00 377.00
C 212.00 365.63 210.91 349.91 216.00 338.00 Z"/>
</g>
<g fill="#C8F3F8" fill-opacity="1.00" stroke="None">
<path d="
M 140.00 306.00 
C 140.00 277.56 125.40 250.26 123.00 222.00
C 142.07 220.79 163.35 219.32 182.00 223.00
C 186.21 249.55 188.53 275.09 193.98 301.02 C 199.43 326.96 199.57 354.82 207.00 380.00
C 215.05 368.05 212.41 352.37 216.00 338.00
C 210.91 349.91 212.00 365.63 206.00 377.00
C 204.87 366.66 203.51 356.23 201.98 346.02 C 200.44 335.82 199.35 325.41 197.78 315.22 C 196.20 305.03 194.25 295.29 193.00 285.00 C 191.75 274.72 190.35 265.42 188.93 255.07 C 187.50 244.72 185.45 235.66 184.00 225.00 C 182.55 214.34 164.85 220.10 155.00 219.00 C 145.15 217.90 131.22 219.83 121.00 219.00
C 128.05 247.61 130.40 278.47 140.00 306.00 Z"/>
</g>
<g fill="#FDFEFE" fill-opacity="1.00" stroke="None">
<path d="
M 227.00 283.00 
C 227.00 294.79 223.19 304.24 220.00 315.00
C 219.91 316.32 220.00 317.68 220.00 319.00
C 220.00 326.11 219.79 330.57 216.00 336.00
C 215.99 336.50 215.97 337.50 216.00 338.00
C 212.41 352.37 215.05 368.05 207.00 380.00
C 199.57 354.82 199.43 326.96 193.98 301.02 C 188.53 275.09 186.21 249.55 182.00 223.00
C 163.35 219.32 142.07 220.79 123.00 222.00
C 125.40 250.26 140.00 277.56 140.00 306.00
C 140.00 306.50 139.89 307.53 140.00 308.00
C 141.29 308.70 141.67 308.81 143.00 308.00
C 148.38 350.95 162.73 391.25 168.00 434.00
C 169.18 451.34 175.46 468.22 179.00 485.00
C 180.29 488.25 182.89 491.77 182.00 496.00
C 195.85 495.48 210.42 496.50 224.00 495.00 C 237.58 493.50 233.45 476.56 236.00 466.00 C 238.55 455.44 240.21 441.25 243.00 430.00 C 245.79 418.74 246.60 404.60 249.00 393.00 C 251.40 381.40 253.29 368.30 255.98 356.98 C 258.66 345.65 258.58 331.75 266.00 324.00
C 270.46 332.96 268.19 343.81 271.98 353.02 C 275.76 362.24 276.33 373.21 278.00 383.00 C 279.67 392.79 282.71 402.15 284.00 412.00 C 285.28 421.85 288.57 431.83 290.92 441.08 C 293.28 450.33 294.02 461.45 296.93 470.07 C 299.83 478.70 296.25 494.65 307.00 496.00 C 317.76 497.34 330.76 495.30 342.00 496.00 C 353.24 496.71 365.94 495.77 377.00 495.00
C 376.50 480.41 372.01 468.75 370.94 454.92 C 369.86 441.09 369.67 424.14 366.67 410.33 C 363.67 396.52 363.00 382.02 361.22 367.78 C 359.44 353.53 356.76 339.34 355.00 325.00 C 353.24 310.66 352.22 296.42 350.02 281.98 C 347.83 267.53 345.90 253.28 344.00 239.00
C 341.54 249.68 338.01 261.83 342.00 273.00
C 332.91 272.61 338.80 288.11 335.67 295.67 C 332.54 303.23 333.60 314.66 332.00 323.00 C 330.40 331.34 329.49 340.89 327.02 349.02 C 324.56 357.16 327.79 369.50 321.00 374.00
C 318.99 367.54 316.69 361.68 315.02 354.98 C 313.36 348.27 313.58 340.21 311.23 333.77 C 308.88 327.33 307.55 320.53 306.02 313.98 C 304.50 307.42 303.29 299.43 301.03 293.97 C 298.78 288.50 300.26 279.50 298.00 274.00 C 295.74 268.50 297.04 256.70 292.00 259.00
C 293.72 254.31 292.21 249.86 292.00 245.00
C 291.60 236.32 289.15 228.19 287.00 220.00
C 271.00 220.00 255.00 220.00 239.00 220.00
C 234.48 240.95 231.49 262.06 227.00 283.00 Z"/>
</g>
<g fill="#04E1F9" fill-opacity="1.00" stroke="None">
<path d="
M 343.00 223.00 
C 349.69 250.84 350.96 281.74 355.00 311.00 C 359.04 340.26 363.06 370.22 366.33 399.67 C 369.60 429.12 376.19 458.97 379.00 488.00
C 388.47 438.27 393.13 386.24 402.00 336.00
C 407.70 346.72 409.41 362.05 413.08 374.92 C 416.74 387.80 419.65 400.86 423.02 413.98 C 426.40 427.10 429.58 440.82 433.02 453.98 C 436.47 467.13 439.40 480.61 442.00 494.00
C 456.33 494.00 470.67 494.00 485.00 494.00
C 495.46 442.86 507.76 392.21 518.00 341.00
C 521.25 348.48 522.63 358.78 525.01 367.99 C 527.38 377.20 528.21 388.14 529.02 397.98 C 529.84 407.81 533.93 416.06 535.00 426.00 C 536.07 435.94 536.90 444.90 539.00 455.00 C 541.10 465.09 543.70 472.47 544.00 484.00 C 544.30 495.53 559.46 491.85 570.00 492.00 C 580.54 492.15 592.34 491.88 603.00 492.00
C 600.94 481.49 599.43 470.86 596.33 460.67 C 593.23 450.48 592.64 439.31 589.93 429.07 C 587.22 418.84 584.72 408.39 583.00 398.00 C 581.27 387.62 577.97 378.50 575.78 368.22 C 573.58 357.95 570.58 348.02 568.33 337.67 C 566.08 327.32 564.99 315.87 562.33 305.67 C 559.67 295.47 558.25 285.47 555.78 275.22 C 553.30 264.98 551.02 254.64 548.78 244.22 C 546.54 233.81 546.23 219.96 533.00 222.00 C 519.77 224.04 509.00 220.47 496.00 222.00
C 485.14 277.21 475.91 333.35 464.00 388.00
C 452.86 333.40 440.35 278.83 429.00 224.00
C 421.72 224.95 414.06 222.44 407.00 223.00 C 399.94 223.56 391.69 222.08 385.00 223.00 C 378.31 223.92 369.63 221.46 364.00 222.00 C 358.37 222.54 346.31 219.16 343.00 223.00 Z"/>
</g>
<g fill="#CDF7FA" fill-opacity="1.00" stroke="None">
<path d="
M 292.00 245.00 
C 292.21 249.86 293.72 254.31 292.00 259.00
C 297.04 256.70 295.74 268.50 298.00 274.00 C 300.26 279.50 298.78 288.50 301.03 293.97 C 303.29 299.43 304.50 307.42 306.02 313.98 C 307.55 320.53 308.88 327.33 311.23 333.77 C 313.58 340.21 313.36 348.27 315.02 354.98 C 316.69 361.68 318.99 367.54 321.00 374.00
C 327.79 369.50 324.56 357.16 327.02 349.02 C 329.49 340.89 330.40 331.34 332.00 323.00 C 333.60 314.66 332.54 303.23 335.67 295.67 C 338.80 288.11 332.91 272.61 342.00 273.00
C 338.01 261.83 341.54 249.68 344.00 239.00
C 345.90 253.28 347.83 267.53 350.02 281.98 C 352.22 296.42 353.24 310.66 355.00 325.00 C 356.76 339.34 359.44 353.53 361.22 367.78 C 363.00 382.02 363.67 396.52 366.67 410.33 C 369.67 424.14 369.86 441.09 370.94 454.92 C 372.01 468.75 376.50 480.41 377.00 495.00
C 365.94 495.77 353.24 496.71 342.00 496.00 C 330.76 495.30 317.76 497.34 307.00 496.00 C 296.25 494.65 299.83 478.70 296.93 470.07 C 294.02 461.45 293.28 450.33 290.92 441.08 C 288.57 431.83 285.28 421.85 284.00 412.00 C 282.71 402.15 279.67 392.79 278.00 383.00 C 276.33 373.21 275.76 362.24 271.98 353.02 C 268.19 343.81 270.46 332.96 266.00 324.00
C 258.58 331.75 258.66 345.65 255.98 356.98 C 253.29 368.30 251.40 381.40 249.00 393.00 C 246.60 404.60 245.79 418.74 243.00 430.00 C 240.21 441.25 238.55 455.44 236.00 466.00 C 233.45 476.56 237.58 493.50 224.00 495.00 C 210.42 496.50 195.85 495.48 182.00 496.00
C 182.89 491.77 180.29 488.25 179.00 485.00
C 179.68 488.21 178.99 493.30 181.00 496.00
C 183.25 498.12 189.11 497.00 192.00 497.00
C 203.64 497.73 214.47 495.72 226.00 496.00 C 237.53 496.28 234.97 481.13 237.22 472.22 C 239.47 463.31 241.02 452.37 243.00 443.00 C 244.98 433.64 245.69 423.52 248.07 414.07 C 250.45 404.63 251.54 393.96 253.22 384.22 C 254.90 374.48 257.41 364.84 259.07 355.07 C 260.73 345.31 262.91 335.88 264.00 326.00
C 267.62 334.07 268.59 343.33 270.67 352.33 C 272.75 361.32 274.29 370.81 276.02 379.98 C 277.76 389.14 280.26 397.73 282.01 406.99 C 283.75 416.26 285.40 425.32 287.22 434.78 C 289.05 444.24 291.70 451.99 293.00 462.00 C 294.30 472.01 297.62 478.71 298.22 489.78 C 298.83 500.84 312.91 498.31 323.00 498.00 C 333.09 497.69 345.13 498.94 355.00 497.00 C 364.87 495.06 380.45 502.95 379.00 488.00
C 376.19 458.97 369.60 429.12 366.33 399.67 C 363.06 370.22 359.04 340.26 355.00 311.00 C 350.96 281.74 349.69 250.84 343.00 223.00
C 336.44 272.06 330.11 321.69 322.00 370.00
C 311.70 328.93 302.48 286.03 292.00 245.00 Z"/>
</g>
<g fill="#D6F7FC" fill-opacity="1.00" stroke="None">
<path d="
M 220.00 315.00 
C 223.19 304.24 227.00 294.79 227.00 283.00
C 224.86 292.98 220.75 304.40 220.00 315.00 Z"/>
</g>
<g fill="#CDF4F9" fill-opacity="1.00" stroke="None">
<path d="
M 168.00 434.00 
C 162.73 391.25 148.38 350.95 143.00 308.00
C 141.67 308.81 141.29 308.70 140.00 308.00
C 149.69 349.86 157.45 392.71 168.00 434.00 Z"/>
</g>
<g fill="#D0F7FA" fill-opacity="1.00" stroke="None">
<path d="
M 216.00 336.00 
C 219.79 330.57 220.00 326.11 220.00 319.00
C 218.97 324.35 216.16 329.82 216.00 336.00 Z"/>
</g>
<g fill="#82CBDD" fill-opacity="1.00" stroke="None">
<path d="
M 192.00 497.00 
C 189.11 497.00 183.25 498.12 181.00 496.00
C 183.72 499.65 188.07 497.38 192.00 497.00 Z"/>
</g>
</svg>